<?xml version="1.0" encoding="UTF-8"?>
<svg xmlns="http://www.w3.org/2000/svg" viewBox="0 0 512 512" role="img" aria-labelledby="title desc">
  <title id="title">EduPage integration icon</title>
  <desc id="desc">An open school book with a calendar and check mark.</desc>

  <rect x="28" y="28" width="456" height="456" rx="104" fill="#168ACD"/>

  <path d="M91 151c0-25 20-45 45-45h82c25 0 46 10 62 27v252c-17-15-39-23-62-23h-82c-25 0-45-20-45-45V151Z" fill="#FFFFFF"/>
  <path d="M421 151c0-25-20-45-45-45h-82c-25 0-46 10-62 27v252c17-15 39-23 62-23h82c25 0 45-20 45-45V151Z" fill="#FFFFFF"/>
  <path d="M256 146v237" fill="none" stroke="#D8EEF9" stroke-width="12" stroke-linecap="round"/>

  <rect x="289" y="165" width="96" height="99" rx="18" fill="#39A852"/>
  <path d="M309 151v30M365 151v30" fill="none" stroke="#FFFFFF" stroke-width="12" stroke-linecap="round"/>
  <path d="M311 205h52" fill="none" stroke="#FFFFFF" stroke-width="10" stroke-linecap="round"/>
  <path d="m311 232 17 17 36-38" fill="none" stroke="#FFFFFF" stroke-width="12" stroke-linecap="round" stroke-linejoin="round"/>

  <path d="M127 176h71M127 216h71M127 256h71M127 296h51" fill="none" stroke="#168ACD" stroke-width="13" stroke-linecap="round"/>
  <path d="M294 300h91M294 332h70" fill="none" stroke="#168ACD" stroke-width="13" stroke-linecap="round"/>
</svg>
